<svg width="2000" height="500" viewBox="0 0 2000 500" fill="none" xmlns="http://www.w3.org/2000/svg">
<g clip-path="url(#clip0_52_9)">
<path d="M621.5 371L548 162.75L535.4 160.3V129.15H619.4L624.3 156.8L597.35 162.75L652.3 325.5L706.55 162.75L674.7 156.45V129.15H756.25V160.3L743.3 162.75L670.85 371H621.5ZM775.385 371L770.485 340.9L794.985 336V163.45L771.185 161V129.15H858.685C875.252 129.15 889.718 131.017 902.085 134.75C914.452 138.483 924.718 143.85 932.885 150.85C941.052 157.85 947.118 166.367 951.085 176.4C955.285 186.2 957.385 197.283 957.385 209.65C957.385 226.217 953.652 240.8 946.185 253.4C938.952 265.767 927.868 275.45 912.935 282.45C898.235 289.45 879.685 292.95 857.285 292.95H840.835V333.9L894.035 341.95L891.935 371H775.385ZM840.835 256.2H843.985C862.185 255.967 875.952 253.983 885.285 250.25C894.618 246.283 900.919 240.8 904.185 233.8C907.685 226.567 909.435 218.167 909.435 208.6C909.435 195.533 905.468 185.15 897.535 177.45C889.602 169.75 877.118 165.9 860.085 165.9H840.835V256.2ZM977.671 371L972.421 348.6L993.421 343V230.65L975.571 232.05L971.721 208.25L1020.37 199.15L1032.27 217.35C1036.94 211.517 1042.54 207.083 1049.07 204.05C1055.6 200.783 1061.9 199.15 1067.97 199.15C1078.24 199.15 1087.45 201.6 1095.62 206.5C1104.02 211.167 1109.85 218.867 1113.12 229.6L1070.77 251.65L1060.27 234.15C1057.47 234.15 1054.09 235.317 1050.12 237.65C1046.39 239.983 1043 243.833 1039.97 249.2C1037.17 254.567 1035.77 261.8 1035.77 270.9V336.35L1078.12 348.6L1078.47 371H977.671ZM1197.42 372.4C1184.59 372.4 1172.22 369.133 1160.32 362.6C1148.65 355.833 1139.09 345.917 1131.62 332.85C1124.15 319.783 1120.42 303.8 1120.42 284.9C1120.42 266 1124.15 250.25 1131.62 237.65C1139.09 224.817 1148.65 215.25 1160.32 208.95C1172.22 202.417 1184.59 199.15 1197.42 199.15C1210.25 199.15 1222.5 202.417 1234.17 208.95C1246.07 215.25 1255.75 224.817 1263.22 237.65C1270.92 250.25 1274.77 266 1274.77 284.9C1274.77 303.8 1270.92 319.783 1263.22 332.85C1255.75 345.917 1246.07 355.833 1234.17 362.6C1222.5 369.133 1210.25 372.4 1197.42 372.4ZM1197.42 339.5C1203.72 339.5 1209.44 337.867 1214.57 334.6C1219.7 331.333 1223.79 325.85 1226.82 318.15C1229.85 310.45 1231.37 300.067 1231.37 287C1231.37 273.7 1229.85 263.083 1226.82 255.15C1223.79 246.983 1219.7 241.15 1214.57 237.65C1209.44 233.917 1203.72 232.05 1197.42 232.05C1192.99 232.05 1188.67 233.1 1184.47 235.2C1180.5 237.067 1176.89 240.217 1173.62 244.65C1170.59 249.083 1168.14 254.8 1166.27 261.8C1164.64 268.8 1163.82 277.2 1163.82 287C1163.82 300.067 1165.34 310.45 1168.37 318.15C1171.4 325.85 1175.49 331.333 1180.62 334.6C1185.75 337.867 1191.35 339.5 1197.42 339.5ZM1362.28 372.4C1349.44 372.4 1338.01 369.133 1327.98 362.6C1317.94 355.833 1310.01 346.267 1304.18 333.9C1298.58 321.3 1295.78 306.367 1295.78 289.1C1295.78 271.367 1298.11 256.667 1302.78 245C1307.68 233.333 1313.86 224.233 1321.33 217.7C1329.03 210.933 1337.19 206.15 1345.83 203.35C1354.46 200.55 1362.51 199.15 1369.98 199.15C1374.88 199.15 1379.31 199.617 1383.28 200.55C1387.48 201.25 1391.33 202.3 1394.83 203.7V144.2H1376.98L1373.13 120.4L1424.93 113.05L1437.18 126V334.25C1437.18 337.283 1437.88 339.383 1439.28 340.55C1440.68 341.483 1442.19 341.95 1443.83 341.95C1445.69 341.95 1447.33 341.717 1448.73 341.25C1450.36 340.55 1451.29 340.083 1451.53 339.85L1458.18 358.05C1456.54 359.683 1453.04 362.483 1447.68 366.45C1442.54 370.417 1435.66 372.4 1427.03 372.4C1420.03 372.4 1414.31 371.117 1409.88 368.55C1405.44 365.75 1401.94 362.133 1399.38 357.7C1395.18 362.6 1389.93 366.333 1383.63 368.9C1377.33 371.233 1370.21 372.4 1362.28 372.4ZM1370.33 339.15C1375.23 339.15 1380.24 337.517 1385.38 334.25C1390.51 330.983 1393.66 326.9 1394.83 322V238.7C1392.73 236.833 1389.81 235.2 1386.08 233.8C1382.34 232.4 1378.38 231.7 1374.18 231.7C1368.58 231.7 1363.09 233.333 1357.73 236.6C1352.36 239.633 1347.93 245.35 1344.43 253.75C1340.93 261.917 1339.18 273.817 1339.18 289.45C1339.18 300.417 1340.34 309.633 1342.68 317.1C1345.24 324.333 1348.86 329.817 1353.53 333.55C1358.19 337.283 1363.79 339.15 1370.33 339.15Z" fill="black"/>
</g>
<defs>
<clipPath id="clip0_52_9">
<rect width="2000" height="500" fill="white"/>
</clipPath>
</defs>
</svg>
